<svg id="Layer_1" data-name="Layer 1" xmlns="http://www.w3.org/2000/svg" viewBox="0 0 71.98 62.34"><defs><style>.cls-1{fill:#488eaf;}.cls-2{fill:#83b7d0;}.cls-3{fill:#fff;}.cls-4{fill:#004f78;}</style></defs><path class="cls-1" d="M24,21.25V41.58l2.37,4.23.59.56v-30A32.41,32.41,0,0,1,24,21.25Z"/><path class="cls-1" d="M16.43,28.45l2.84,4.92V26.44A23.17,23.17,0,0,1,16.43,28.45Z"/><path class="cls-1" d="M20.45,25.4v10l2.37,4.1V22.83A25.23,25.23,0,0,1,20.45,25.4Z"/><path class="cls-1" d="M26.89,0H0L14.45,25C24.44,19,26.54,5.44,26.89,0Z"/><path class="cls-1" d="M57.48,25.12,72,0H44.93V1.11C45.21,7.21,47.06,20,57.48,25.12Z"/><path class="cls-1" d="M41.28,9.87V1.48c0-.54,0-1,0-1.48H30.72V9.87Z"/><polygon class="cls-1" points="41.18 27.64 30.72 27.64 30.72 48.57 28.04 48.57 35.99 62.34 43.94 48.57 41.18 48.57 41.18 27.64"/><path class="cls-1" d="M48.88,23.49V40l2.37-4.11V25.77A23.17,23.17,0,0,1,48.88,23.49Z"/><rect class="cls-1" x="30.72" y="13.82" width="10.46" height="9.87"/><path class="cls-1" d="M52.44,33.85l3.06-5.3a21.57,21.57,0,0,1-3.06-1.87Z"/><path class="cls-1" d="M45.13,17.7v29l2.57-4.59v-20A26.81,26.81,0,0,1,45.13,17.7Z"/><path class="cls-2" d="M60.14,7.5H51.05a2.57,2.57,0,1,0,0-5.13H38.81a2.57,2.57,0,0,0,0,5.13H13.94a2.57,2.57,0,1,0,0,5.13h5.92a2.57,2.57,0,0,0,0,5.14H31.71a2.57,2.57,0,0,0,0-5.14H60.14a2.57,2.57,0,0,0,0-5.13Z"/><path class="cls-3" d="M44.93,1.11V0H41.14c0,.45,0,.94,0,1.48V9.87H30.72V0H26.79c-.35,5.44-2.35,19-12.34,25l2,3.42a23.17,23.17,0,0,0,2.84-2v6.93l1.18,2.06v-10a25.23,25.23,0,0,0,2.37-2.57v16.7l1.19,2V21.25a32,32,0,0,0,2.86-4.86v30L28,48.57h2.68V27.64H41.18V48.57h2.76l1.19-1.92V17.7a26.81,26.81,0,0,0,2.57,4.38v20L48.88,40V23.49a23.17,23.17,0,0,0,2.37,2.28V35.9l1.19-2V26.68a21.57,21.57,0,0,0,3.06,1.87l2-3.43C47.06,20,45.21,7.21,44.93,1.11ZM41.18,23.69H30.72V13.82H41.18Z"/><polygon class="cls-4" points="26.38 45.8 45.63 45.8 35.99 62.34 26.38 45.8"/></svg>